<svg xmlns="http://www.w3.org/2000/svg" width="512" height="512" viewBox="0 0 32 32">
  <circle cx="16" cy="16" r="15" fill="#F48FB1"></circle>
  <path fill="#fff" d="M16 7c-4.96 0-9 3.88-9 8.65 0 1.53.42 3.01 1.22 4.32L7 25l5.22-1.36A9.3 9.3 0 0 0 16 24.3c4.96 0 9-3.88 9-8.65S20.96 7 16 7zm4.83 12.15c-.2.55-1.16 1.03-1.61 1.1-.41.06-.92.09-1.49-.09-.35-.11-.79-.26-1.36-.5-2.4-1-3.96-3.4-4.08-3.56-.12-.16-.98-1.26-.98-2.41 0-1.15.61-1.71.82-1.94.21-.23.46-.29.61-.29.15 0 .31 0 .45.01.14.01.33-.05.51.38.2.48.68 1.66.74 1.78.06.12.1.26.02.42-.08.16-.12.26-.24.4-.12.14-.25.31-.36.42-.12.12-.24.25-.1.49.14.23.62 1.01 1.33 1.63.91.8 1.67 1.05 1.9 1.17.23.12.36.1.49-.06.13-.16.57-.65.72-.87.15-.22.31-.18.51-.11.2.07 1.3.61 1.53.72.23.11.38.16.43.25.05.09.05.52-.15 1.07z"></path>
</svg>